<?xml version="1.0" encoding="UTF-8"?>
<svg id="Layer_1" xmlns="http://www.w3.org/2000/svg" version="1.1" viewBox="0 0 100 100">
  <!-- Generator: Adobe Illustrator 29.3.0, SVG Export Plug-In . SVG Version: 2.1.0 Build 146)  -->
  <defs>
    <style>
      .st0 {
        fill: #fff;
      }
    </style>
  </defs>
  <path class="st0" d="M25.21,24.47c-4.52,0-8.19,3.37-8.19,9.22,0,3.27,1.24,6.81,3.42,9.26.72.81,1.61,1.46,2.17,2.4.9,1.5.96,3.24.86,4.94-.08,1.43-.14,2.85-.22,4.28-.2,3.22-.47,6.43-.79,9.64-.35,3.45-1.02,6.92-1.2,10.37-.11,2.01.88,3.86,2.94,4.39.33.09.67.13,1.01.13s.68-.04,1.01-.13c2.06-.53,3.05-2.38,2.94-4.39-.19-3.46-.85-6.92-1.2-10.37-.33-3.21-.59-6.42-.79-9.64-.09-1.43-.14-2.85-.22-4.28-.09-1.7-.04-3.44.86-4.94.57-.94,1.45-1.59,2.17-2.4,2.18-2.46,3.42-6,3.42-9.26,0-5.85-3.67-9.22-8.19-9.22Z"/>
  <path class="st0" d="M39.11,27.65c.02-1.74-.48-3.17-1.13-3.17s-1.19,1.4-1.21,3.14h0c-.4,9.66-.99,36.85-1.2,47.45-.03,2.22.73,4.03,1.69,4.04s1.77-1.77,1.8-3.99c.07-10.61.19-37.8.04-47.47Z"/>
  <path class="st0" d="M41.76,27.65c-.02-1.74.48-3.17,1.13-3.17s1.19,1.4,1.21,3.14h0c.4,9.66.99,36.85,1.2,47.45.03,2.22-.73,4.03-1.69,4.04s-1.77-1.77-1.8-3.99c-.07-10.61-.19-37.8-.04-47.47Z"/>
  <path class="st0" d="M93.11,86.34c-5.24-6.88-9.81-13.26-13.81-19.13,4.83-4.11,7.91-10.23,7.91-17.06,0-12.35-10.05-22.4-22.4-22.4s-22.4,10.05-22.4,22.4,10.05,22.4,22.4,22.4c2.73,0,5.34-.49,7.76-1.39,2.91,6.43,5.96,13.62,9.1,21.61,1.78,3.16,5.78,4.28,8.94,2.51,3.16-1.78,4.28-5.78,2.51-8.94ZM50.67,50.15c0-7.8,6.34-14.14,14.14-14.14s14.14,6.34,14.14,14.14-6.34,14.14-14.14,14.14-14.14-6.34-14.14-14.14Z"/>
</svg>